<svg xmlns="http://www.w3.org/2000/svg" width="1200" height="520" viewBox="0 0 1200 520"><rect width="1200" height="520" rx="32" fill="#F5FAFC"/><circle cx="110" cy="110" r="100" fill="#DFF4F3"/><circle cx="1080" cy="410" r="130" fill="#EAF2FB"/><g stroke="#D4E5EC" stroke-width="6"><path d="M600 260 L350 150"/><path d="M600 260 L850 150"/><path d="M600 260 L350 370"/><path d="M600 260 L850 370"/></g><g fill="#fff" stroke="#DDEAF2" stroke-width="5"><circle cx="350" cy="150" r="52"/><circle cx="850" cy="150" r="52"/><circle cx="350" cy="370" r="52"/><circle cx="850" cy="370" r="52"/></g><circle cx="350" cy="150" r="18" fill="#00B4B3"/><path d="M825 150h50M850 125v50" stroke="#4CAF50" stroke-width="8" stroke-linecap="round"/><circle cx="350" cy="370" r="18" fill="#FFC107"/><path d="M835 355 Q850 330 865 355 Q850 385 835 355Z" fill="#1F4E79"/><circle cx="600" cy="260" r="82" fill="#fff" stroke="#DDEAF2" stroke-width="5"/><circle cx="600" cy="260" r="54" fill="#EAF7F6"/><path d="M600 220 L620 260 L600 300 L580 260 Z" fill="#00B4B3"/><circle cx="600" cy="260" r="8" fill="#FFC107"/><rect x="75" y="62" width="300" height="66" rx="21" fill="#fff"/><text x="225" y="104" text-anchor="middle" font-family="Poppins,Arial,sans-serif" font-size="25" font-weight="700" fill="#1C2E4A">Acompañar con propósito</text></svg>