<svg xmlns="http://www.w3.org/2000/svg" width="1200" height="520" viewBox="0 0 1200 520"><rect width="1200" height="520" rx="32" fill="#F5FAFC"/><circle cx="110" cy="110" r="100" fill="#DFF4F3"/><circle cx="1080" cy="410" r="130" fill="#EAF2FB"/><path d="M330 380 Q430 300 520 380 Q600 440 680 380 Q770 300 870 380" fill="none" stroke="#8BC9A0" stroke-width="20" stroke-linecap="round"/><path d="M380 160 Q505 120 600 180 L600 390 Q505 330 380 370Z" fill="#fff" stroke="#1F4E79" stroke-width="8"/><path d="M820 160 Q695 120 600 180 L600 390 Q695 330 820 370Z" fill="#fff" stroke="#1F4E79" stroke-width="8"/><path d="M600 180v210" stroke="#DDEAF2" stroke-width="6"/><path d="M430 205 Q505 180 560 215 M770 205 Q695 180 640 215" fill="none" stroke="#00B4B3" stroke-width="8" stroke-linecap="round"/><circle cx="600" cy="115" r="28" fill="#E8F4EA"/><path d="M600 128c-20-20-16-39 0-51 16 12 20 31 0 51z" fill="#4CAF50"/><rect x="75" y="62" width="265" height="66" rx="21" fill="#fff"/><text x="207" y="104" text-anchor="middle" font-family="Poppins,Arial,sans-serif" font-size="25" font-weight="700" fill="#1C2E4A">Recursos para explorar</text></svg>