<svg xmlns="http://www.w3.org/2000/svg" width="900" height="520" viewBox="0 0 900 520"><rect width="900" height="520" rx="32" fill="#F5FAFC"/><circle cx="100" cy="100" r="90" fill="#DFF4F3"/><circle cx="800" cy="420" r="110" fill="#EAF2FB"/><path d="M450 385 C450 300 450 225 450 150" stroke="#8BC9A0" stroke-width="20" stroke-linecap="round"/><path d="M450 270 Q390 210 335 225 M450 315 Q510 255 570 270" fill="none" stroke="#4CAF50" stroke-width="16" stroke-linecap="round"/><path d="M450 150 Q415 110 390 135 Q420 180 450 150 Q480 110 510 135 Q480 180 450 150Z" fill="#00B4B3"/><circle cx="450" cy="385" r="42" fill="#fff" stroke="#DDEAF2" stroke-width="5"/><circle cx="450" cy="385" r="12" fill="#FFC107"/><rect x="70" y="60" width="240" height="62" rx="20" fill="#fff"/><text x="190" y="100" text-anchor="middle" font-family="Poppins,Arial,sans-serif" font-size="24" font-weight="700" fill="#1C2E4A">Comienza tu recorrido</text></svg>